<svg width="45" height="43" viewBox="0 0 45 43" fill="none" xmlns="http://www.w3.org/2000/svg">
<path fill-rule="evenodd" clip-rule="evenodd" d="M35.5352 26.8408C34.8454 26.9615 33.8194 27.3236 33.1986 27.6599C29.1895 29.8499 27.9393 34.954 30.4741 38.7735C32.3451 41.5929 36.0008 42.8689 39.2253 41.817C41.6136 41.0411 43.3983 39.2822 44.2346 36.8681L44.2391 36.8547C44.5193 36.0229 44.5277 35.9977 44.5192 34.4626C44.5192 32.9968 44.5106 32.8675 44.2778 32.1778C43.4156 29.574 41.5188 27.7375 38.9236 26.996C38.2252 26.7891 36.2853 26.7029 35.5352 26.8408ZM40.1393 30.6344C40.4841 30.9535 40.6307 31.2983 40.579 31.6949C40.5186 32.2123 37.113 38.0838 36.7077 38.3683C36.3025 38.6528 35.6214 38.6011 35.2679 38.2648C35.1299 38.1355 34.604 37.3078 34.0953 36.4284C33.3021 35.0402 33.1728 34.773 33.1728 34.4367C33.1728 33.5745 34.1557 32.9451 34.8972 33.3331C35.2075 33.4969 35.4403 33.7642 35.7421 34.3074C35.88 34.5574 36.0266 34.7557 36.0611 34.7385C36.0956 34.7298 36.6474 33.8245 37.2768 32.7382C38.5873 30.462 38.7166 30.3241 39.4668 30.3844C39.7858 30.4103 39.9754 30.4793 40.1393 30.6344ZM4.19438 15.9171C4.29784 15.7705 4.51339 15.5895 4.66858 15.5119C4.85826 15.417 5.1859 15.3653 5.65148 15.3653H6.35847L6.38434 16.3309C6.41883 17.15 6.45331 17.3569 6.60851 17.6156C7.04822 18.314 7.93628 18.4174 8.52256 17.8312L8.83295 17.5208L8.85882 16.443L8.8933 15.3653H10.1349H11.3764V18.814V22.2628H12.6266H13.8768V18.814V15.3653H15.1269H16.3771V16.3309C16.3771 17.15 16.403 17.3483 16.5495 17.5897C17.0755 18.4519 18.2998 18.4002 18.705 17.4949C18.8343 17.219 18.8774 16.9345 18.8774 16.2447V15.3653H20.0845H21.2916V18.814V22.2628H22.5417H23.7919V18.814V15.3653H25.0421H26.2923V16.3999V17.4432L26.6199 17.788C27.0165 18.2191 27.5338 18.3226 28.0425 18.0812C28.5857 17.8225 28.7409 17.4518 28.784 16.3309L28.8099 15.3653H30.0083H31.2067V18.814V22.2628H32.4138H33.6209V18.814V15.3653H34.871H36.1212V16.3741C36.1212 17.2794 36.1385 17.4087 36.3195 17.6673C36.5954 18.0726 36.9575 18.245 37.4317 18.1933C37.6473 18.1674 37.9232 18.0726 38.0439 17.9863C38.4664 17.6673 38.5698 17.3828 38.6043 16.3396L38.6474 15.3653H39.3285C40.1907 15.3653 40.6046 15.5636 40.8632 16.0982C41.0271 16.4344 41.0357 16.6327 41.0357 19.3486V22.2542L42.3979 22.28C43.6395 22.3059 43.7774 22.3232 44.0189 22.4956C44.5103 22.8491 44.5707 23.0991 44.5707 24.8925C44.5707 26.2116 44.5448 26.5565 44.4241 26.8065C44.3465 26.9703 44.2344 27.1255 44.174 27.1514C44.1051 27.1773 43.8292 26.9876 43.5447 26.7376C42.4669 25.7633 40.8891 24.9356 39.3372 24.539C38.1905 24.2372 36.4316 24.1682 35.259 24.3665C33.2329 24.72 31.405 25.6253 29.8531 27.0393L29.3272 27.5221H15.3683C2.26308 27.5221 1.40089 27.5135 1.11637 27.367C0.952551 27.2894 0.728382 27.0911 0.62492 26.9272C0.435238 26.6427 0.426616 26.5565 0.426616 24.8925C0.426616 23.2285 0.435238 23.1422 0.62492 22.8577C0.961173 22.349 1.25432 22.2628 2.68555 22.2628H3.95297L3.97883 19.2193L3.97908 19.1909C4.0047 16.2443 4.0053 16.1749 4.19438 15.9171ZM4.18576 1.16474C4.2806 1.03541 4.49615 0.854351 4.65996 0.776752C4.86689 0.664669 5.16003 0.621559 5.66872 0.621559H6.37572V1.41477C6.37572 2.41491 6.47056 2.75116 6.8413 3.11329C7.41034 3.66508 8.28115 3.53576 8.70362 2.846C8.8502 2.60459 8.87606 2.40629 8.87606 1.58721V0.621559H10.1262H11.3764V4.07031V7.51907H12.6266H13.8768V4.07031V0.621559H15.1269H16.3771V1.58721C16.3771 2.40629 16.403 2.60459 16.5495 2.846C17.0669 3.69095 18.2308 3.65646 18.6878 2.77703C18.8516 2.45802 18.8774 2.25972 18.8774 1.50961V0.621559H20.0845H21.2916V4.07031V7.51907H22.5417H23.7919V4.07031V0.621559H25.0335H26.275L26.3095 1.69067C26.3354 2.69943 26.3526 2.77703 26.5509 2.99258C27.1889 3.67371 28.1201 3.59611 28.5857 2.82014C28.7064 2.62184 28.7581 2.33731 28.7754 1.58721L28.8099 0.621559H30.0083H31.2067V4.07031V7.51907H32.4138H33.6209V4.07031V0.621559H34.871H36.1212V1.65619V2.69943L36.4488 3.05293C36.7334 3.3547 36.8454 3.40643 37.2076 3.44091C37.5524 3.4754 37.6818 3.44091 37.9232 3.2771C38.4922 2.88911 38.5612 2.70806 38.6043 1.61308L38.6474 0.621559H39.3285C40.1907 0.621559 40.6046 0.819862 40.8632 1.35442C41.0271 1.69067 41.0357 1.88898 41.0357 4.61349V7.51907H42.2686C43.3895 7.51907 43.5447 7.53631 43.8809 7.71737C44.5362 8.06224 44.5793 8.24331 44.5534 10.2522C44.5275 12.1921 44.4931 12.3128 43.8723 12.6232C43.5964 12.7698 42.3979 12.7784 22.4555 12.7784C1.53022 12.7784 1.33191 12.7784 1.04739 12.606C0.469726 12.2525 0.426616 12.0714 0.426616 10.166C0.426616 8.27779 0.461104 8.1226 0.961173 7.76048C1.22845 7.57942 1.34916 7.56218 2.59933 7.53631L3.95297 7.50182L3.97883 4.4583C4.0047 1.53548 4.01332 1.39753 4.18576 1.16474ZM3.96156 34.0054C3.96156 30.6774 3.96156 30.6515 4.65131 30.298C4.95308 30.1514 5.17725 30.1083 5.69456 30.1083H6.35845L6.39293 31.074C6.4188 31.7723 6.47053 32.1258 6.57399 32.3241C6.78092 32.7035 7.22063 32.9535 7.70346 32.9535C8.05696 32.9535 8.1518 32.9104 8.47081 32.6173L8.83292 32.2724L8.85879 31.1947L8.89328 30.1083H10.1348H11.3764V33.514V36.9196H12.6266H13.8767V33.514V30.1083H15.1269H16.3771V31.0567C16.3771 32.1172 16.4547 32.35 16.8944 32.7294C17.2393 33.0139 17.8342 33.0398 18.2566 32.7811C18.7136 32.5052 18.8774 32.031 18.8774 30.9877V30.1083H20.0845H21.2915V33.514V36.9196H22.5417H23.7919V33.514V30.1083H25.0421H26.2922V31.1257C26.2922 32.1431 26.3526 32.3759 26.6802 32.6518C26.7664 32.7207 26.7664 32.919 26.6975 33.5484C26.5337 34.9797 26.8268 36.8679 27.4389 38.3767C27.9132 39.5062 29.1978 41.3857 29.8358 41.8513C29.9738 41.9548 30.0859 42.0669 30.0859 42.11C30.0859 42.1445 23.6367 42.1789 15.7563 42.1789C2.28029 42.1789 1.40086 42.1703 1.11634 42.0238C0.952525 41.9462 0.728356 41.7479 0.624893 41.584C0.435212 41.2995 0.42659 41.2133 0.42659 39.5493C0.42659 37.8853 0.435212 37.7904 0.624893 37.5231C0.97839 36.9972 1.25429 36.9196 2.68552 36.9196H3.96156V34.0054Z" fill="url(#paint0_linear_1_663)"/>
<defs>
<linearGradient id="paint0_linear_1_663" x1="4.70494" y1="42.2335" x2="16.247" y2="-1.22144" gradientUnits="userSpaceOnUse">
<stop stop-color="#C49337"/>
<stop offset="0.275" stop-color="#FCF7CD"/>
<stop offset="0.495" stop-color="#EDCD78"/>
<stop offset="0.63" stop-color="#A7602B"/>
<stop offset="0.825" stop-color="#FDF8D0"/>
<stop offset="1" stop-color="#BB9138"/>
</linearGradient>
</defs>
</svg>
