<svg width="49" height="42" viewBox="0 0 49 42" fill="none" xmlns="http://www.w3.org/2000/svg">
<path fill-rule="evenodd" clip-rule="evenodd" d="M12.7565 20.518C13.295 18.3827 15.1518 16.6002 17.3056 16.1546C17.677 16.0803 18.5218 16.0153 19.2738 16.0153L20.5828 16.006L22.5231 21.8084C23.5814 25.002 24.4727 27.6108 24.5005 27.6108C24.5284 27.6108 25.4196 25.002 26.478 21.8084L28.4183 16.006H29.6623C31.2313 16.006 32.1039 16.1732 33.1344 16.6745C34.6013 17.38 35.836 18.9119 36.2445 20.5087C36.3652 20.9822 36.3838 22.4211 36.3838 30.7765V40.4966L36.0867 40.9423C35.901 41.2115 35.6225 41.4714 35.3718 41.6014L34.9633 41.8149H24.5005H14.0377L13.6292 41.6014C13.4064 41.4807 13.1 41.2022 12.9422 40.9887L12.6637 40.5895L12.6359 30.8322C12.6173 22.3469 12.6359 21.01 12.7565 20.518ZM5.29244 9.41453C6.00729 7.96626 7.51126 6.73152 9.08951 6.30447C9.45157 6.20235 9.94361 6.1745 10.807 6.20235C11.8189 6.22091 12.116 6.26733 12.6359 6.46229C14.4091 7.13072 15.7181 8.46759 16.3401 10.2501C16.5258 10.7607 16.5537 11.0392 16.5537 12.1068C16.5537 13.1745 16.5258 13.453 16.3401 13.9636C15.7274 15.7368 14.3998 17.0922 12.6359 17.7514C11.8004 18.067 10.0829 18.1506 9.18234 17.9185C7.52055 17.4914 6.01658 16.2845 5.30172 14.7991C4.43833 13.0074 4.42905 11.1784 5.29244 9.41453ZM16.7855 6.12833C17.5654 3.24107 19.8678 1.01297 22.7736 0.353817C23.1635 0.270264 23.7855 0.233128 24.7325 0.260979C26.0136 0.279545 26.1993 0.307396 27.007 0.585911C29.0958 1.29148 30.6926 2.69333 31.6489 4.64292C32.2337 5.82196 32.4194 6.64822 32.4194 8.11506C32.4287 9.42407 32.3266 9.99966 31.9088 11.0859C31.1197 13.1376 29.1608 15.0036 27.0998 15.672C24.0455 16.6747 20.9168 15.9041 18.7259 13.611C17.7325 12.5713 17.1383 11.4851 16.7391 9.97181C16.4977 9.07128 16.5163 7.10312 16.7855 6.12833ZM36.8481 6.31377C34.7221 6.8708 33.0324 8.61615 32.5218 10.7607C32.3083 11.7076 32.3826 13.1374 32.6982 14.0379C33.3109 15.7832 34.6014 17.0922 36.3653 17.7514C37.2009 18.0578 38.9184 18.1413 39.8189 17.9185C41.4621 17.51 42.9754 16.2938 43.6995 14.7991C44.5722 13.0167 44.5722 11.197 43.6995 9.41455C42.9754 7.92915 41.4807 6.71298 39.8653 6.30449C39.169 6.1281 37.5351 6.1281 36.8481 6.31377ZM3.41706 20.2117C2.31229 20.5923 1.56959 21.2515 1.06826 22.3098L0.780468 22.9225L0.752616 29.6811C0.734049 36.2633 0.734049 36.4397 0.919724 36.7925C1.14253 37.2381 1.65314 37.6652 2.11733 37.8137C2.35871 37.8787 3.76984 37.9158 6.56426 37.9158H10.6584L10.6863 30.3681C10.7141 22.8854 10.7234 22.8204 10.9276 22.087C11.039 21.6785 11.2804 21.0379 11.4568 20.6666L11.7725 19.9982H7.90112L7.88586 19.9982C4.12233 20.0074 4.01042 20.0077 3.41706 20.2117ZM38.0734 22.087C37.9619 21.6785 37.7206 21.0379 37.5442 20.6666L37.2285 19.9982H41.0627C44.6277 19.9982 44.9526 20.0074 45.5004 20.1838C46.6144 20.5273 47.4221 21.2329 47.9327 22.3098L48.2205 22.9225L48.2484 29.6718C48.2669 36.2633 48.2669 36.4397 48.0905 36.7925C47.8585 37.2381 47.3478 37.6652 46.8837 37.8137C46.6423 37.8787 45.2311 37.9158 42.4367 37.9158H38.3426L38.3147 30.3681C38.2869 22.8854 38.2776 22.8204 38.0734 22.087Z" fill="url(#paint0_linear_1_675)"/>
<defs>
<linearGradient id="paint0_linear_1_675" x1="5.3495" y1="41.8653" x2="16.1718" y2="-1.98625" gradientUnits="userSpaceOnUse">
<stop stop-color="#C49337"/>
<stop offset="0.275" stop-color="#FCF7CD"/>
<stop offset="0.495" stop-color="#EDCD78"/>
<stop offset="0.63" stop-color="#A7602B"/>
<stop offset="0.825" stop-color="#FDF8D0"/>
<stop offset="1" stop-color="#BB9138"/>
</linearGradient>
</defs>
</svg>
