<svg width="41" height="46" viewBox="0 0 41 46" fill="none" xmlns="http://www.w3.org/2000/svg">
<path d="M11.7341 3.11193C7.04969 4.81628 2.69186 6.39816 2.05911 6.63289L0.905869 7.05132L0.946691 16.512C0.987514 26.7993 0.956897 26.238 1.58965 28.718C3.27359 35.2905 8.19273 40.6587 15.8062 44.2204C17.0002 44.7818 18.9801 45.5268 19.8987 45.7615C20.4906 45.9146 20.5518 45.9146 21.307 45.7003C23.787 45.0165 26.9508 43.5265 29.4818 41.8629C34.6663 38.4644 38.1056 33.9229 39.4324 28.718C40.0651 26.238 40.0345 26.7993 40.0753 16.512C40.1161 7.49017 40.1059 7.05132 39.9324 6.99009C37.3606 6.00014 20.6539 -0.0110168 20.4906 -0.000808716C20.3579 -0.000808716 16.4185 1.39737 11.7341 3.11193ZM30.3085 16.4712L31.3801 17.5428L24.3075 24.6153L17.2452 31.6777L13.4487 27.8811L9.64194 24.0744L10.7442 22.9824L11.8362 21.8802L14.5407 24.5847L17.2452 27.2892L23.1951 21.3393C26.4609 18.0735 29.1552 15.3996 29.1858 15.3996C29.2165 15.3996 29.7165 15.8792 30.3085 16.4712Z" fill="url(#paint0_linear_1_689)"/>
<defs>
<linearGradient id="paint0_linear_1_689" x1="4.70403" y1="45.9252" x2="19.9913" y2="-0.370455" gradientUnits="userSpaceOnUse">
<stop stop-color="#C49337"/>
<stop offset="0.275" stop-color="#FCF7CD"/>
<stop offset="0.495" stop-color="#EDCD78"/>
<stop offset="0.63" stop-color="#A7602B"/>
<stop offset="0.825" stop-color="#FDF8D0"/>
<stop offset="1" stop-color="#BB9138"/>
</linearGradient>
</defs>
</svg>
