<svg width="54" height="33" viewBox="0 0 54 33" fill="none" xmlns="http://www.w3.org/2000/svg">
<path fill-rule="evenodd" clip-rule="evenodd" d="M35.7074 21.061V13.5752V6.08934H38.3935C39.8687 6.08934 41.3328 6.14439 41.652 6.19943C43.0501 6.46363 43.1162 6.51868 48.1581 11.5716C52.5505 15.964 52.8698 16.3163 53.0899 16.9108C53.3101 17.5052 53.3211 17.7474 53.3211 21.094V24.6388L53.0129 25.2993C52.6496 26.0479 51.9891 26.6974 51.2405 27.0386C50.8332 27.2258 50.4589 27.2808 49.3911 27.3139L48.037 27.3579V27.8203C48.037 28.811 47.3875 30.1761 46.5068 31.0678C45.461 32.1026 44.3161 32.5649 42.7529 32.5649C41.1897 32.5649 40.0448 32.1026 38.999 31.0678C38.1073 30.1651 37.4688 28.811 37.4688 27.8092V27.3359H27.7812H18.0937V27.8092C18.0937 28.811 17.4552 30.1651 16.5635 31.0678C15.5177 32.1026 14.3728 32.5649 12.8096 32.5649C11.2464 32.5649 10.1015 32.1026 9.05568 31.0678C8.16399 30.1651 7.52549 28.811 7.52549 27.8092V27.3359H4.28897C1.18456 27.3359 1.05246 27.3249 0.766234 27.1047L0.480011 26.8845V23.9673V21.061H18.0937H35.7074ZM46.0555 12.133C44.0299 10.1405 42.1694 8.39013 41.9273 8.26904C41.586 8.08189 41.2447 8.01584 40.353 7.98282L39.2191 7.93878L39.2522 11.5936L39.2852 15.2485L39.5934 15.5127L39.9017 15.7769L44.8225 15.7659H49.7433L46.0555 12.133ZM16.2002 27.0827C16.1012 25.6406 15.2205 24.4957 13.8664 24.0553C12.9857 23.7581 12.5014 23.7581 11.7308 24.0223C11.0042 24.2755 10.4428 24.7158 9.9804 25.3984C9.51804 26.0809 9.36392 26.6644 9.41896 27.556C9.463 28.4037 9.76023 29.0532 10.4097 29.7247C11.0813 30.4073 11.7858 30.6935 12.8646 30.6935C13.6352 30.6825 13.8224 30.6495 14.3288 30.3632C15.6278 29.6587 16.2883 28.4808 16.2002 27.0827ZM46.1435 27.0827C46.0445 25.6406 45.1638 24.4957 43.8097 24.0553C42.929 23.7581 42.4447 23.7581 41.6741 24.0223C40.9475 24.2755 40.3861 24.7158 39.9237 25.3984C39.4613 26.0809 39.3072 26.6644 39.3623 27.556C39.4063 28.4037 39.7035 29.0532 40.353 29.7247C41.0246 30.4073 41.7291 30.6935 42.8079 30.6935C43.5785 30.6825 43.7657 30.6495 44.2721 30.3632C45.5711 29.6587 46.2316 28.4808 46.1435 27.0827ZM0.601105 1.23465C0.667157 1.11356 0.821276 0.970448 0.953379 0.915403C1.09649 0.860361 8.175 0.827335 17.3561 0.838345L33.5277 0.860361L33.7369 1.12457C33.935 1.36675 33.946 1.686 33.946 10.3938V19.4098H17.213H0.480011V10.4268C0.480011 4.28403 0.513037 1.37776 0.601105 1.23465Z" fill="url(#paint0_linear_1_697)"/>
<defs>
<linearGradient id="paint0_linear_1_697" x1="5.60127" y1="32.6034" x2="23.1883" y2="-4.91029" gradientUnits="userSpaceOnUse">
<stop stop-color="#C49337"/>
<stop offset="0.275" stop-color="#FCF7CD"/>
<stop offset="0.495" stop-color="#EDCD78"/>
<stop offset="0.63" stop-color="#A7602B"/>
<stop offset="0.825" stop-color="#FDF8D0"/>
<stop offset="1" stop-color="#BB9138"/>
</linearGradient>
</defs>
</svg>
