<svg width="56" height="56" viewBox="0 0 56 56" fill="none" xmlns="http://www.w3.org/2000/svg">
<rect x="3.71545" y="3.67432" width="48.1716" height="48.1716" rx="10.3225" fill="url(#paint0_radial_87_882)"/>
<rect x="3.71545" y="3.67432" width="48.1716" height="48.1716" rx="10.3225" fill="url(#paint1_radial_87_882)"/>
<rect x="3.71545" y="3.67432" width="48.1716" height="48.1716" rx="10.3225" fill="url(#paint2_radial_87_882)"/>
<path d="M39.8441 18.2975C39.8441 19.7228 38.6887 20.8781 37.2635 20.8781C35.8382 20.8781 34.6828 19.7228 34.6828 18.2975C34.6828 16.8723 35.8382 15.7169 37.2635 15.7169C38.6887 15.7169 39.8441 16.8723 39.8441 18.2975Z" fill="white"/>
<path fill-rule="evenodd" clip-rule="evenodd" d="M27.8012 36.3619C32.552 36.3619 36.4032 32.5106 36.4032 27.7598C36.4032 23.009 32.552 19.1577 27.8012 19.1577C23.0504 19.1577 19.1991 23.009 19.1991 27.7598C19.1991 32.5106 23.0504 36.3619 27.8012 36.3619ZM27.8012 32.921C30.6517 32.921 32.9624 30.6103 32.9624 27.7598C32.9624 24.9093 30.6517 22.5986 27.8012 22.5986C24.9507 22.5986 22.6399 24.9093 22.6399 27.7598C22.6399 30.6103 24.9507 32.921 27.8012 32.921Z" fill="white"/>
<path fill-rule="evenodd" clip-rule="evenodd" d="M10.597 27.0716C10.597 21.2905 10.597 18.3999 11.7221 16.1918C12.7118 14.2495 14.2909 12.6704 16.2332 11.6807C18.4413 10.5557 21.3319 10.5557 27.113 10.5557H28.4893C34.2705 10.5557 37.161 10.5557 39.3691 11.6807C41.3114 12.6704 42.8906 14.2495 43.8802 16.1918C45.0053 18.3999 45.0053 21.2905 45.0053 27.0716V28.448C45.0053 34.2291 45.0053 37.1197 43.8802 39.3278C42.8906 41.2701 41.3114 42.8492 39.3691 43.8388C37.161 44.9639 34.2705 44.9639 28.4893 44.9639H27.113C21.3319 44.9639 18.4413 44.9639 16.2332 43.8388C14.2909 42.8492 12.7118 41.2701 11.7221 39.3278C10.597 37.1197 10.597 34.2291 10.597 28.448V27.0716ZM27.113 13.9965H28.4893C31.4367 13.9965 33.4403 13.9992 34.9889 14.1257C36.4974 14.2489 37.2689 14.4723 37.807 14.7465C39.1019 15.4063 40.1547 16.4591 40.8144 17.7539C41.0886 18.2921 41.312 19.0635 41.4353 20.572C41.5618 22.1207 41.5645 24.1243 41.5645 27.0716V28.448C41.5645 31.3953 41.5618 33.3989 41.4353 34.9476C41.312 36.4561 41.0886 37.2275 40.8144 37.7657C40.1547 39.0605 39.1019 40.1133 37.807 40.773C37.2689 41.0472 36.4974 41.2706 34.9889 41.3939C33.4403 41.5204 31.4367 41.5231 28.4893 41.5231H27.113C24.1657 41.5231 22.1621 41.5204 20.6134 41.3939C19.1049 41.2706 18.3335 41.0472 17.7953 40.773C16.5005 40.1133 15.4477 39.0605 14.7879 37.7657C14.5137 37.2275 14.2903 36.4561 14.1671 34.9476C14.0405 33.3989 14.0379 31.3953 14.0379 28.448V27.0716C14.0379 24.1243 14.0405 22.1207 14.1671 20.572C14.2903 19.0635 14.5137 18.2921 14.7879 17.7539C15.4477 16.4591 16.5005 15.4063 17.7953 14.7465C18.3335 14.4723 19.1049 14.2489 20.6134 14.1257C22.1621 13.9992 24.1657 13.9965 27.113 13.9965Z" fill="white"/>
<defs>
<radialGradient id="paint0_radial_87_882" cx="0" cy="0" r="1" gradientUnits="userSpaceOnUse" gradientTransform="translate(20.9196 39.803) rotate(-55.3758) scale(43.9043)">
<stop stop-color="#B13589"/>
<stop offset="0.79309" stop-color="#C62F94"/>
<stop offset="1" stop-color="#8A3AC8"/>
</radialGradient>
<radialGradient id="paint1_radial_87_882" cx="0" cy="0" r="1" gradientUnits="userSpaceOnUse" gradientTransform="translate(19.1992 53.5663) rotate(-65.1363) scale(38.8714)">
<stop stop-color="#E0E8B7"/>
<stop offset="0.444662" stop-color="#FB8A2E"/>
<stop offset="0.71474" stop-color="#E2425C"/>
<stop offset="1" stop-color="#E2425C" stop-opacity="0"/>
</radialGradient>
<radialGradient id="paint2_radial_87_882" cx="0" cy="0" r="1" gradientUnits="userSpaceOnUse" gradientTransform="translate(1.13484 5.39473) rotate(-8.1301) scale(66.9084 14.311)">
<stop offset="0.156701" stop-color="#406ADC"/>
<stop offset="0.467799" stop-color="#6A45BE"/>
<stop offset="1" stop-color="#6A45BE" stop-opacity="0"/>
</radialGradient>
</defs>
</svg>
