<svg width="53" height="32" viewBox="0 0 53 32" fill="none" xmlns="http://www.w3.org/2000/svg">
<path fill-rule="evenodd" clip-rule="evenodd" d="M35.3029 20.3998V12.9615V5.5233H37.9719C39.4377 5.5233 40.8925 5.57799 41.2098 5.63269C42.599 5.89521 42.6646 5.94991 47.6744 10.9707C52.0389 15.3352 52.3562 15.6852 52.5749 16.2759C52.7937 16.8666 52.8046 17.1072 52.8046 20.4326V23.9548L52.4984 24.6111C52.1374 25.3549 51.4811 26.0003 50.7373 26.3394C50.3325 26.5254 49.9606 26.5801 48.8996 26.6129L47.5541 26.6566V27.116C47.5541 28.1005 46.9087 29.4569 46.0337 30.3429C44.9945 31.3711 43.8569 31.8306 42.3036 31.8306C40.7503 31.8306 39.6127 31.3711 38.5736 30.3429C37.6875 29.446 37.0531 28.1005 37.0531 27.1051V26.6347H27.4272H17.8012V27.1051C17.8012 28.1005 17.1668 29.446 16.2808 30.3429C15.2416 31.3711 14.104 31.8306 12.5507 31.8306C10.9974 31.8306 9.85981 31.3711 8.82065 30.3429C7.93462 29.446 7.30018 28.1005 7.30018 27.1051V26.6347H4.08424C0.999568 26.6347 0.868305 26.6238 0.583902 26.405L0.2995 26.1863V23.2875V20.3998H17.8012H35.3029ZM45.5852 11.5286C43.5725 9.5487 41.7239 7.80946 41.4832 7.68914C41.1441 7.50318 40.805 7.43755 39.919 7.40474L38.7923 7.36098L38.8251 10.9926L38.858 14.6242L39.1642 14.8867L39.4705 15.1492L44.3601 15.1383H49.2496L45.5852 11.5286ZM15.9198 26.3832C15.8213 24.9502 14.9462 23.8126 13.6008 23.3751C12.7257 23.0797 12.2444 23.0797 11.4787 23.3422C10.7568 23.5938 10.1989 24.0314 9.73949 24.7096C9.28007 25.3877 9.12693 25.9675 9.18162 26.8535C9.22537 27.6958 9.52071 28.3412 10.1661 29.0084C10.8333 29.6866 11.5334 29.971 12.6054 29.971C13.3711 29.9601 13.557 29.9273 14.0602 29.6429C15.351 28.9428 16.0073 27.7724 15.9198 26.3832ZM45.6727 26.3832C45.5742 24.9502 44.6992 23.8126 43.3537 23.3751C42.4786 23.0797 41.9973 23.0797 41.2316 23.3422C40.5097 23.5938 39.9518 24.0314 39.4924 24.7096C39.033 25.3877 38.8798 25.9675 38.9345 26.8535C38.9783 27.6958 39.2736 28.3412 39.919 29.0084C40.5863 29.6866 41.2863 29.971 42.3583 29.971C43.124 29.9601 43.31 29.9273 43.8131 29.6429C45.1039 28.9428 45.7602 27.7724 45.6727 26.3832ZM0.419824 0.699444C0.485455 0.579119 0.638595 0.436918 0.769858 0.382225C0.912059 0.327532 7.94556 0.294716 17.0683 0.305655L33.1371 0.327532L33.3449 0.590057C33.5418 0.830706 33.5528 1.14792 33.5528 9.80033V18.759H16.9261H0.2995V9.83315C0.2995 3.72943 0.332315 0.841644 0.419824 0.699444Z" fill="url(#paint0_linear_1_577)"/>
<defs>
<linearGradient id="paint0_linear_1_577" x1="5.38819" y1="31.8688" x2="22.8634" y2="-5.40639" gradientUnits="userSpaceOnUse">
<stop stop-color="#C49337"/>
<stop offset="0.275" stop-color="#FCF7CD"/>
<stop offset="0.495" stop-color="#EDCD78"/>
<stop offset="0.63" stop-color="#A7602B"/>
<stop offset="0.825" stop-color="#FDF8D0"/>
<stop offset="1" stop-color="#BB9138"/>
</linearGradient>
</defs>
</svg>
