<svg width="28" height="46" viewBox="0 0 28 46" fill="none" xmlns="http://www.w3.org/2000/svg">
<path d="M4.51594 0.645031C2.86293 1.03145 1.42459 2.56639 1.10257 4.28381C0.9523 5.06738 0.9523 41.0688 1.10257 41.8523C1.38165 43.3014 2.36917 44.5573 3.7109 45.1906L4.48374 45.5555L13.9832 45.5877C20.2303 45.6092 23.6651 45.577 23.9979 45.5018C25.726 45.1369 27.1751 43.6341 27.5079 41.8523C27.6581 41.0688 27.6581 5.06738 27.5079 4.28381C27.1751 2.53419 25.7583 1.03145 24.0623 0.645031C23.4719 0.505489 5.08484 0.505489 4.51594 0.645031ZM18.8134 5.01371C19.758 5.486 19.9512 6.63453 19.1999 7.37516L18.8134 7.77232H14.3052H9.797L9.41058 7.37516C8.65921 6.63453 8.85242 5.486 9.797 5.01371C10.1405 4.84197 10.5806 4.8205 14.3052 4.8205C18.0299 4.8205 18.47 4.84197 18.8134 5.01371ZM16.1944 38.761C16.9458 39.5016 16.7525 40.6501 15.808 41.1224C15.5181 41.2727 15.1639 41.3156 14.3052 41.3156C13.0064 41.3156 12.5878 41.1654 12.1799 40.5643C11.7076 39.8558 12.0511 38.761 12.8562 38.4068C12.9742 38.3531 13.6827 38.3209 14.434 38.3424L15.808 38.3638L16.1944 38.761Z" fill="url(#paint0_linear_1_571)"/>
<defs>
<linearGradient id="paint0_linear_1_571" x1="3.57086" y1="45.6488" x2="23.1744" y2="4.57557" gradientUnits="userSpaceOnUse">
<stop stop-color="#C49337"/>
<stop offset="0.275" stop-color="#FCF7CD"/>
<stop offset="0.495" stop-color="#EDCD78"/>
<stop offset="0.63" stop-color="#A7602B"/>
<stop offset="0.825" stop-color="#FDF8D0"/>
<stop offset="1" stop-color="#BB9138"/>
</linearGradient>
</defs>
</svg>
