<svg width="45" height="46" viewBox="0 0 45 46" fill="none" xmlns="http://www.w3.org/2000/svg">
<path fill-rule="evenodd" clip-rule="evenodd" d="M0.682188 8.63061C1.20205 6.61616 2.84826 4.98077 4.80856 4.50424C5.20929 4.40676 6.07572 4.34178 7.08294 4.34178L8.72916 4.33095L8.56671 4.8833C8.31761 5.74973 8.41508 7.13602 8.78332 7.9483C9.18404 8.81473 9.74722 9.47538 10.5053 9.96275L10.5407 9.98566C10.7333 10.1107 10.8937 10.2148 11.0631 10.3013C11.9038 10.7307 12.9659 10.7264 19.3007 10.7006L19.6354 10.6992L26.7834 10.6667L27.4116 10.4068C28.6354 9.91943 29.5993 8.9122 30.0867 7.60173C30.3791 6.8436 30.4116 5.4898 30.1517 4.78583L29.9892 4.33095H31.5813C33.4116 4.33095 34.2239 4.48257 35.2203 5.00243C36.0542 5.44648 37.1914 6.58367 37.5921 7.37429L37.6239 7.43781L37.624 7.43798C37.711 7.61152 37.785 7.75928 37.8481 7.91161C38.2096 8.78522 38.2096 9.80849 38.2095 16.6988V16.6989L38.2095 17.1325V25.1145L37.7438 25.4394C37.4947 25.6127 34.4297 28.6235 30.9423 32.1325C25.5271 37.5694 24.5632 38.5766 24.3791 39.0423C24.2599 39.3348 23.9783 40.6452 23.7509 41.9449C23.3718 44.2084 23.3502 44.5117 23.556 45.3456L23.6101 45.5947H14.4693L13.9793 45.5947C5.87811 45.5949 4.83242 45.5949 3.96545 45.2013C3.83696 45.1429 3.71239 45.0759 3.56937 44.999L3.56936 44.999L3.50892 44.9666C2.72913 44.555 1.48364 43.2878 1.12623 42.5514C1.09584 42.4885 1.06697 42.4308 1.03954 42.3759L1.03954 42.3759C0.995801 42.2884 0.955733 42.2082 0.919027 42.1265C0.51824 41.2346 0.518344 40.1625 0.519583 27.385L0.519732 25.017C0.519732 11.4032 0.541393 9.1613 0.682188 8.63061ZM12.4765 22.9267C12.9314 22.3094 12.6389 21.2372 11.8916 20.8473C11.6642 20.7282 11.231 20.6848 10.4079 20.6848C9.12989 20.6848 8.72916 20.8256 8.36093 21.3888C8.09017 21.8004 8.101 22.5477 8.38259 22.9159C8.88079 23.5874 9.08657 23.6632 10.4295 23.6632C11.7617 23.6632 11.9783 23.5874 12.4765 22.9267ZM29.8376 23.4574C30.834 22.8509 30.834 21.5079 29.8376 20.9014C29.5018 20.6957 29.2527 20.6848 23.3177 20.6848C17.7834 20.6848 17.1119 20.7065 16.7761 20.8689C15.7906 21.3563 15.7364 22.7426 16.6787 23.4141L17.0361 23.6632H23.2635C29.1986 23.6632 29.5018 23.6524 29.8376 23.4574ZM12.6606 31.9484C12.8447 31.3419 12.4873 30.638 11.8483 30.3347C11.4801 30.1506 11.1768 30.1073 10.3646 30.1073C9.06491 30.1073 8.5992 30.3347 8.27429 31.1037C8.07934 31.591 8.06851 31.6235 8.25263 32.1001C8.54505 32.869 8.92411 33.0748 10.1371 33.1181C10.6895 33.1398 11.3176 33.1289 11.5126 33.0965C11.9783 33.0098 12.4981 32.4899 12.6606 31.9484ZM25.8412 32.934C26.935 32.3708 26.9134 30.8546 25.8087 30.3239C25.3863 30.1181 25.1264 30.1073 21.3032 30.1073C16.9494 30.1181 16.8628 30.1289 16.3429 30.6921C16.148 30.8871 16.0613 31.1362 16.0288 31.5477C15.9855 32.0459 16.018 32.165 16.2779 32.4683L16.2987 32.4929C16.4071 32.6219 16.4939 32.7252 16.5971 32.8079C17.0118 33.1399 17.6923 33.1399 21.1052 33.1398L21.3141 33.1398C25.1589 33.1398 25.4621 33.1289 25.8412 32.934ZM11.7401 3.51866C12.574 1.4284 12.8231 1.01684 13.4513 0.713593C13.7437 0.572796 14.556 0.540306 19.343 0.540306L19.6451 0.540298C24.4371 0.540154 25.176 0.540131 25.6304 0.8997C25.7132 0.96526 25.7866 1.04277 25.8734 1.13441L25.8954 1.15764C26.1986 1.48255 27.6174 4.8508 27.8232 5.71723C28.0289 6.63781 27.5199 7.64504 26.6643 8.0241C26.2203 8.22988 25.8845 8.22988 19.2238 8.20822L12.2599 8.17572L11.805 7.87247C11.2202 7.49341 10.9169 6.89774 10.9169 6.15044C10.9169 5.68474 11.0794 5.17571 11.7401 3.51866ZM40.6462 26.8691C39.8123 26.9774 39.1083 27.3998 38.1011 28.4178L37.1805 29.3492L39.704 31.8727L42.2275 34.3854L43.1697 33.4106C44.3502 32.2084 44.6318 31.6561 44.686 30.5189C44.7401 29.4034 44.5235 28.7644 43.8304 28.0063C42.9856 27.0748 41.935 26.7066 40.6462 26.8691ZM26.5774 40.2336C26.6207 39.9845 27.7146 38.8257 30.9853 35.5441C33.3789 33.1506 35.3825 31.1903 35.4475 31.1903C35.5883 31.1903 40.3753 35.9773 40.3753 36.1181C40.3753 36.2589 31.6893 44.9448 31.5377 44.9448C31.4916 44.9448 30.8321 45.0549 29.9948 45.1947C29.8494 45.219 29.6987 45.2441 29.5449 45.2698C27.2705 45.6596 26.7507 45.6705 26.3716 45.3781C25.8409 44.9557 25.8192 44.6199 26.1767 42.4863C26.3608 41.425 26.5449 40.4069 26.5774 40.2336Z" fill="url(#paint0_linear_1_559)"/>
<defs>
<linearGradient id="paint0_linear_1_559" x1="4.80076" y1="45.6493" x2="18.2018" y2="-0.92503" gradientUnits="userSpaceOnUse">
<stop stop-color="#C49337"/>
<stop offset="0.275" stop-color="#FCF7CD"/>
<stop offset="0.495" stop-color="#EDCD78"/>
<stop offset="0.63" stop-color="#A7602B"/>
<stop offset="0.825" stop-color="#FDF8D0"/>
<stop offset="1" stop-color="#BB9138"/>
</linearGradient>
</defs>
</svg>
