<svg width="216" height="216" viewBox="0 0 216 216" fill="none" xmlns="http://www.w3.org/2000/svg">
<circle cx="108" cy="108" r="107.76" fill="url(#paint0_linear_1_10)"/>
<path d="M185.256 106.641L203.075 118.243L202.377 122.627L181.832 128.15L182.573 123.492L200.623 119.173L200.344 120.926L184.532 111.189L185.256 106.641ZM188.685 111.569L191.868 113.284L190.298 123.148L186.736 123.817L188.685 111.569Z" fill="#201F1C"/>
<path d="M174.922 144.256L185.999 143.107L186.303 147.34L172.607 148.805L174.922 144.256ZM180.649 133.005L197.957 141.815L195.931 145.796L178.622 136.986L180.649 133.005ZM186.187 139.373L189.525 141.072L186.454 147.105L183.116 145.406L186.187 139.373ZM184.038 146.654L186.358 143.196L192.155 153.214L190.003 157.442L184.038 146.654Z" fill="#201F1C"/>
<path d="M170.09 153.488L183.823 167.222L180.664 170.38L169.521 159.237L163.4 165.358L174.543 176.501L171.385 179.66L157.651 165.927L170.09 153.488ZM155.709 162.062L159.358 165.711L157.926 165.652L160.81 162.768L163.4 165.358L158.279 170.478L152.786 164.985L155.709 162.062Z" fill="#201F1C"/>
<path d="M150.703 171.141L160.582 187.863L156.736 190.135L146.857 173.413L150.703 171.141Z" fill="#201F1C"/>
<path d="M129.644 180.953L131.426 186.82L130.082 186.213L135.179 184.665C136.79 184.175 138.259 184.019 139.589 184.195C140.918 184.371 142.046 184.869 142.972 185.69C143.898 186.51 144.573 187.62 144.998 189.018C145.439 190.469 145.488 191.808 145.145 193.033C144.789 194.282 144.093 195.363 143.056 196.277C142.02 197.191 140.687 197.896 139.059 198.391L131.042 200.826L125.396 182.243L129.644 180.953ZM141.404 177.38L138.809 185.447L134.455 186.769L136.865 178.759L141.404 177.38ZM131.845 188.2L134.563 197.146L133.163 196.354L137.888 194.919C139.109 194.548 139.961 193.979 140.444 193.214C140.909 192.454 140.972 191.517 140.634 190.402C140.306 189.322 139.743 188.584 138.946 188.189C138.149 187.793 137.149 187.778 135.946 188.143L131.114 189.611L131.845 188.2Z" fill="#201F1C"/>
<path d="M108.887 185.237L97.2169 203.011L92.8356 202.297L87.3911 181.73L92.0463 182.49L96.2961 200.556L94.5436 200.27L104.341 184.495L108.887 185.237ZM103.945 188.647L102.218 191.823L92.3604 190.215L91.7049 186.651L103.945 188.647Z" fill="#201F1C"/>
<path d="M71.3661 174.727L72.4741 185.808L68.2395 186.097L66.825 172.394L71.3661 174.727ZM82.5954 180.495L73.7214 197.771L69.748 195.73L78.6219 178.454L82.5954 180.495ZM76.2069 186.01L74.4955 189.341L68.4737 186.248L70.1851 182.916L76.2069 186.01ZM68.9342 183.834L72.3833 186.167L62.344 191.927L58.1238 189.759L68.9342 183.834Z" fill="#201F1C"/>
<path d="M62.1588 169.868L48.3262 183.501L45.1906 180.319L56.4148 169.257L50.3383 163.092L39.1141 174.154L35.9785 170.972L49.8112 157.339L62.1588 169.868ZM53.6901 155.425L50.0146 159.048L50.0838 157.616L52.9468 160.521L50.3383 163.092L45.2551 157.934L50.7882 152.481L53.6901 155.425Z" fill="#201F1C"/>
<path d="M44.7056 150.493L27.9475 160.31L25.6897 156.456L42.4478 146.639L44.7056 150.493Z" fill="#201F1C"/>
<path d="M34.9631 129.386L29.0894 131.146L29.7011 129.804L31.2302 134.907C31.7134 136.519 31.8644 137.99 31.6833 139.319C31.5022 140.647 30.9996 141.773 30.1755 142.696C29.3514 143.619 28.2394 144.29 26.8397 144.709C25.3868 145.145 24.0483 145.189 22.8241 144.841C21.577 144.481 20.4982 143.781 19.5879 142.741C18.6776 141.7 17.9782 140.365 17.4897 138.735L15.0844 130.709L33.6888 125.133L34.9631 129.386ZM38.4913 141.16L30.4345 138.534L29.1284 134.176L37.1294 136.615L38.4913 141.16ZM27.7074 131.56L18.7507 134.244L19.5484 132.847L20.9661 137.577C21.3324 138.8 21.8974 139.654 22.6608 140.14C23.4189 140.608 24.3561 140.674 25.4724 140.34C26.5532 140.016 27.2931 139.456 27.6919 138.661C28.0908 137.866 28.1097 136.866 27.7487 135.661L26.2991 130.824L27.7074 131.56Z" fill="#201F1C"/>
<path d="M30.7134 108.826L12.9833 97.0881L13.7147 92.7095L34.3019 87.3439L33.5247 91.9961L15.4422 96.1768L15.7348 94.4253L31.4722 104.284L30.7134 108.826ZM27.3216 103.871L24.1521 102.132L25.7978 92.2807L29.365 91.6388L27.3216 103.871Z" fill="#201F1C"/>
<path d="M41.2423 71.428L30.1576 72.495L29.8843 68.2594L43.5917 66.8956L41.2423 71.428ZM35.4327 82.6359L18.1898 73.6981L20.2455 69.7322L37.4884 78.67L35.4327 82.6359ZM29.9419 76.2271L26.6165 74.5034L29.7319 68.493L33.0574 70.2167L29.9419 76.2271ZM32.1449 68.9625L29.7991 72.4029L24.076 62.3424L26.2594 58.1302L32.1449 68.9625Z" fill="#201F1C"/>
<path d="M46.1508 62.0754L32.5681 48.1933L35.761 45.0693L46.7824 56.3336L52.9698 50.2796L41.9484 39.0153L45.1413 35.8913L58.724 49.7734L46.1508 62.0754ZM60.6241 53.6592L57.0149 49.9705L58.4464 50.045L55.5311 52.8974L52.9698 50.2796L58.1459 45.2152L63.579 50.768L60.6241 53.6592Z" fill="#201F1C"/>
<path d="M65.7818 44.5031L56.0888 27.673L59.9597 25.4437L69.6527 42.2737L65.7818 44.5031Z" fill="#201F1C"/>
<path d="M86.6202 34.9631L84.8823 29.0829L86.2218 29.6996L81.1131 31.2094C79.499 31.6865 78.0279 31.832 76.6998 31.6458C75.3718 31.4597 74.248 30.9528 73.3283 30.1252C72.4087 29.2976 71.7417 28.1832 71.3276 26.7818C70.8977 25.3273 70.8589 23.9886 71.2111 22.7658C71.5759 21.52 72.2801 20.4439 73.3238 19.5376C74.3675 18.6312 75.7053 17.9368 77.3372 17.4545L85.3727 15.0796L90.8774 33.7049L86.6202 34.9631ZM74.833 38.4468L77.4889 30.4L81.8526 29.1103L79.3829 37.1021L74.833 38.4468ZM84.4733 27.6993L81.8232 18.7325L83.2178 19.5355L78.4817 20.9352C77.2577 21.297 76.4015 21.8587 75.9129 22.6203C75.4421 23.3766 75.3718 24.3136 75.7021 25.4311C76.0219 26.5131 76.5787 27.2551 77.3726 27.6569C78.1664 28.0588 79.1664 28.0815 80.3726 27.725L85.2152 26.2938L84.4733 27.6993Z" fill="#201F1C"/>
<path d="M107.771 30.7142L119.644 13.0746L124.017 13.8395L129.225 34.4671L124.579 33.6543L120.537 15.5403L122.286 15.8463L112.308 31.5078L107.771 30.7142ZM112.751 27.3604L114.515 24.2044L124.354 25.9254L124.968 29.4974L112.751 27.3604Z" fill="#201F1C"/>
<path d="M145.111 41.5471L144.126 30.4548L148.363 30.2128L149.626 43.93L145.111 41.5471ZM133.946 35.6547L143.012 18.4784L146.962 20.5634L137.897 37.7397L133.946 35.6547ZM140.396 30.2115L142.144 26.8989L148.131 30.0588L146.383 33.3713L140.396 30.2115ZM147.644 32.4682L144.221 30.097L154.323 24.4485L158.519 26.663L147.644 32.4682Z" fill="#201F1C"/>
<path d="M154.097 46.2758L168.029 32.7436L171.141 35.9478L159.837 46.9282L165.868 53.1376L177.173 42.1572L180.285 45.3614L166.354 58.8936L154.097 46.2758ZM162.461 60.7795L166.163 57.1838L166.083 58.615L163.241 55.6894L165.868 53.1376L170.914 58.332L165.341 63.7449L162.461 60.7795Z" fill="#201F1C"/>
<path d="M171.634 66.0007L188.5 56.3698L190.715 60.2489L173.849 69.8798L171.634 66.0007Z" fill="#201F1C"/>
<path d="M181.25 87.3909L187.143 85.6975L186.516 87.0324L185.045 81.9124C184.58 80.2947 184.446 78.8225 184.642 77.4959C184.838 76.1694 185.354 75.0494 186.188 74.136C187.023 73.2227 188.142 72.5642 189.547 72.1607C191.004 71.7418 192.343 71.7131 193.563 72.0746C194.806 72.4488 195.877 73.1611 196.776 74.2116C197.674 75.2622 198.358 76.6052 198.828 78.2407L201.142 86.2939L182.476 91.6575L181.25 87.3909ZM177.855 75.5777L185.882 78.2944L187.139 82.6677L179.166 80.1376L177.855 75.5777ZM188.53 85.2991L197.516 82.7169L196.703 84.1054L195.339 79.3588C194.986 78.1321 194.431 77.2717 193.673 76.7774C192.921 76.3008 191.984 76.2235 190.864 76.5453C189.78 76.8569 189.034 77.4081 188.626 78.1988C188.218 78.9896 188.188 79.9895 188.535 81.1983L189.93 86.0516L188.53 85.2991Z" fill="#201F1C"/>
<circle cx="108" cy="108" r="107.76" fill="url(#paint1_linear_1_10)"/>
<defs>
<linearGradient id="paint0_linear_1_10" x1="201.392" y1="28.9758" x2="34.3638" y2="198.698" gradientUnits="userSpaceOnUse">
<stop stop-color="#C49337"/>
<stop offset="0.275" stop-color="#FCF7CD"/>
<stop offset="0.495" stop-color="#EDCD78"/>
<stop offset="0.63" stop-color="#A7602B"/>
<stop offset="0.825" stop-color="#FDF8D0"/>
<stop offset="1" stop-color="#BB9138"/>
</linearGradient>
<linearGradient id="paint1_linear_1_10" x1="201.392" y1="28.9758" x2="34.3638" y2="198.698" gradientUnits="userSpaceOnUse">
<stop stop-color="#C49337" stop-opacity="0.2"/>
<stop offset="0.275" stop-color="#FCF7CD" stop-opacity="0.2"/>
<stop offset="0.495" stop-color="#EDCD78" stop-opacity="0.2"/>
<stop offset="0.63" stop-color="#A7602B" stop-opacity="0.2"/>
<stop offset="0.825" stop-color="#FDF8D0" stop-opacity="0.2"/>
<stop offset="1" stop-color="#BB9138" stop-opacity="0.2"/>
</linearGradient>
</defs>
</svg>
