<svg width="56" height="56" viewBox="0 0 56 56" fill="none" xmlns="http://www.w3.org/2000/svg">
<path fill-rule="evenodd" clip-rule="evenodd" d="M52.4854 26.6908C52.4854 10.9121 46.9272 3.67432 28.3997 3.67432C9.87213 3.67432 4.31387 10.9121 4.31387 26.6908C4.31387 37.92 7.12897 44.8234 15.4304 47.8709V53.1834C15.4304 55.1389 17.884 56.0321 19.1549 54.5393L23.4386 49.508C24.9783 49.6412 26.6298 49.7073 28.3997 49.7073C46.9272 49.7073 52.4854 42.4695 52.4854 26.6908ZM24.4621 45.8787C25.6903 45.9762 27.0013 46.0246 28.3997 46.0246C44.0768 46.0246 48.7799 39.9449 48.7799 26.6908C48.7799 13.4367 44.0768 7.35695 28.3997 7.35695C12.7225 7.35695 8.01938 13.4367 8.01938 26.6908C8.01938 36.0592 10.3691 41.8433 17.2831 44.4294V52.2999C17.2831 52.986 18.144 53.2994 18.59 52.7756L24.4621 45.8787Z" fill="#BFC8D0"/>
<path d="M28.3997 44.7142C26.9831 44.7142 25.6551 44.665 24.4109 44.5658L18.4626 51.579C18.0109 52.1116 17.1388 51.7929 17.1388 51.0952V43.0921C10.135 40.4623 7.7547 34.5808 7.7547 25.0544C7.7547 11.5768 12.5189 5.39453 28.3997 5.39453C44.2804 5.39453 49.0446 11.5768 49.0446 25.0544C49.0446 38.5319 44.2804 44.7142 28.3997 44.7142Z" fill="#9179EE"/>
<path fill-rule="evenodd" clip-rule="evenodd" d="M52.4854 24.9701C52.4854 9.19138 46.9272 1.95361 28.3997 1.95361C9.87213 1.95361 4.31387 9.19138 4.31387 24.9701C4.31387 36.1993 7.12897 43.1027 15.4304 46.1502V51.4627C15.4304 53.4182 17.884 54.3114 19.1549 52.8186L23.4386 47.7873C24.9783 47.9205 26.6298 47.9866 28.3997 47.9866C46.9272 47.9866 52.4854 40.7488 52.4854 24.9701ZM24.4621 44.158C25.6903 44.2555 27.0013 44.3039 28.3997 44.3039C44.0768 44.3039 48.7799 38.2242 48.7799 24.9701C48.7799 11.716 44.0768 5.63625 28.3997 5.63625C12.7225 5.63625 8.01938 11.716 8.01938 24.9701C8.01938 34.3385 10.3691 40.1226 17.2831 42.7087V50.5792C17.2831 51.2653 18.144 51.5787 18.59 51.0549L24.4621 44.158Z" fill="white"/>
<path d="M22.3996 19.0199C22.3942 19.0103 22.3814 18.9878 22.3577 18.9493C22.323 18.8931 22.2759 18.8203 22.2168 18.7323C22.099 18.5567 21.9443 18.3358 21.7688 18.0922C21.4179 17.605 20.9969 17.0444 20.6484 16.6031C19.9739 15.7489 18.9729 14.7492 18.3271 14.1829C18.2754 14.1376 18.146 14.0759 17.8978 14.0799C17.6558 14.0838 17.4095 14.1509 17.2522 14.2269L22.3996 19.0199ZM22.3996 19.0199C22.4025 19.0297 22.4157 19.0714 22.4274 19.1473C22.442 19.2427 22.449 19.3602 22.4391 19.483C22.4187 19.7343 22.3361 19.936 22.1875 20.0721C21.6835 20.5336 21.0002 20.9611 20.7322 21.1095L20.6622 21.1483L20.6006 21.1992C20.1248 21.5928 19.4115 22.6733 20.0363 24.0087C20.5569 25.1215 21.717 27.394 23.7554 29.1063C25.7489 30.7808 27.8775 31.6815 29.2758 31.9764L29.3636 31.9949H29.4437C29.4477 31.9953 29.4559 31.9962 29.4696 31.9981C29.5028 32.0028 29.543 32.0097 29.606 32.0208L22.3996 19.0199ZM28.8756 11.4436C28.876 11.4431 28.8765 11.4427 28.8771 11.4421C28.8894 11.4305 28.9148 11.4159 28.9546 11.4159C35.8225 11.4159 41.3 16.6422 41.3028 22.9823C41.3017 22.9837 41.2999 22.9859 41.2971 22.9885C41.2848 23.0001 41.2593 23.0148 41.2195 23.0148C41.1797 23.0148 41.1543 23.0001 41.142 22.9885C41.1392 22.9859 41.1374 22.9837 41.1363 22.9822C41.1335 16.5762 35.6308 11.4714 28.9546 11.4714C28.9148 11.4714 28.8894 11.4567 28.8771 11.4451C28.8765 11.4446 28.876 11.4441 28.8756 11.4436ZM28.8756 18.5473C28.876 18.5468 28.8765 18.5463 28.8771 18.5458C28.8894 18.5342 28.9148 18.5195 28.9546 18.5195C31.654 18.5195 33.7524 20.5654 33.7552 22.9823C33.754 22.9838 33.7522 22.9859 33.7495 22.9885C33.7371 23.0001 33.7117 23.0148 33.6719 23.0148C33.6321 23.0148 33.6067 23.0001 33.5943 22.9885C33.5916 22.9859 33.5898 22.9837 33.5887 22.9822C33.5859 20.4995 31.4625 18.575 28.9546 18.575C28.9148 18.575 28.8894 18.5603 28.8771 18.5487C28.8765 18.5482 28.876 18.5477 28.8756 18.5473ZM28.8756 14.9954C28.876 14.995 28.8765 14.9945 28.8771 14.994C28.8894 14.9824 28.9148 14.9677 28.9546 14.9677C33.7382 14.9677 37.5262 18.6038 37.529 22.9822C37.5279 22.9837 37.5261 22.9859 37.5233 22.9885C37.5109 23.0001 37.4855 23.0148 37.4457 23.0148C37.4059 23.0148 37.3805 23.0001 37.3682 22.9885C37.3654 22.9859 37.3636 22.9837 37.3625 22.9823C37.3597 18.5378 33.5466 15.0232 28.9546 15.0232C28.9148 15.0232 28.8894 15.0085 28.8771 14.9969C28.8765 14.9964 28.876 14.9959 28.8756 14.9954Z" fill="white" stroke="white" stroke-width="1.72041" stroke-linecap="round"/>
</svg>
