<svg width="56" height="56" viewBox="0 0 56 56" fill="none" xmlns="http://www.w3.org/2000/svg">
<path fill-rule="evenodd" clip-rule="evenodd" d="M27.6005 53.5661C40.9027 53.5661 51.6863 42.7825 51.6863 29.4803C51.6863 16.1781 40.9027 5.39453 27.6005 5.39453C14.2983 5.39453 3.51471 16.1781 3.51471 29.4803C3.51471 33.8001 4.6519 37.8542 6.64324 41.3597L3.51471 53.5661L16.0993 50.6479C19.5169 52.5088 23.4352 53.5661 27.6005 53.5661ZM27.6005 49.8606C38.8562 49.8606 47.9808 40.736 47.9808 29.4803C47.9808 18.2246 38.8562 9.10004 27.6005 9.10004C16.3448 9.10004 7.22021 18.2246 7.22021 29.4803C7.22021 33.8262 8.58047 37.8544 10.8984 41.1623L9.07297 48.0078L16.0392 46.2663C19.3242 48.5331 23.3073 49.8606 27.6005 49.8606Z" fill="#BFC8D0"/>
<path d="M48.2454 27.7602C48.2454 39.1621 39.0024 48.4052 27.6005 48.4052C23.2515 48.4052 19.2167 47.0605 15.889 44.7642L8.83232 46.5283L10.6815 39.5939C8.33343 36.243 6.95551 32.1625 6.95551 27.7602C6.95551 16.3583 16.1986 7.11523 27.6005 7.11523C39.0024 7.11523 48.2454 16.3583 48.2454 27.7602Z" fill="url(#paint0_linear_87_877)"/>
<path fill-rule="evenodd" clip-rule="evenodd" d="M27.6005 51.8459C40.9027 51.8459 51.6863 41.0623 51.6863 27.7601C51.6863 14.4579 40.9027 3.67432 27.6005 3.67432C14.2983 3.67432 3.51471 14.4579 3.51471 27.7601C3.51471 32.0799 4.6519 36.134 6.64324 39.6395L3.51471 51.8459L16.0993 48.9277C19.5169 50.7886 23.4352 51.8459 27.6005 51.8459ZM27.6005 48.1404C38.8562 48.1404 47.9808 39.0158 47.9808 27.7601C47.9808 16.5044 38.8562 7.37982 27.6005 7.37982C16.3448 7.37982 7.22021 16.5044 7.22021 27.7601C7.22021 32.106 8.58047 36.1341 10.8984 39.4421L9.07297 46.2876L16.0392 44.5461C19.3242 46.8129 23.3073 48.1404 27.6005 48.1404Z" fill="white"/>
<path d="M21.579 16.5771C21.0064 15.4268 20.1279 15.5287 19.2404 15.5287C17.6543 15.5287 15.1812 17.4285 15.1812 20.9642C15.1812 23.862 16.4581 27.034 20.7608 31.779C24.9132 36.3584 30.3693 38.7273 34.8988 38.6466C39.4283 38.566 40.3602 34.6682 40.3602 33.3518C40.3602 32.7684 39.9982 32.4773 39.7487 32.3982C38.2052 31.6574 35.3584 30.2772 34.7106 30.0178C34.0629 29.7585 33.7246 30.1093 33.5144 30.3001C32.927 30.8599 31.7626 32.5096 31.3639 32.8807C30.9652 33.2518 30.3708 33.064 30.1234 32.9237C29.2132 32.5584 26.7453 31.4607 24.7781 29.5537C22.3451 27.1953 22.2024 26.3839 21.744 25.6616C21.3773 25.0838 21.6464 24.7292 21.7806 24.5743C22.3048 23.9695 23.0286 23.0357 23.3532 22.5716C23.6778 22.1076 23.4201 21.4031 23.2655 20.9642C22.6005 19.077 22.0372 17.4973 21.579 16.5771Z" fill="white"/>
<defs>
<linearGradient id="paint0_linear_87_877" x1="45.6648" y1="12.2765" x2="6.9555" y2="48.4051" gradientUnits="userSpaceOnUse">
<stop stop-color="#5BD066"/>
<stop offset="1" stop-color="#27B43E"/>
</linearGradient>
</defs>
</svg>
